<?xml version="1.0" encoding="UTF-8"?>
<svg id="Layer_1" data-name="Layer 1" xmlns="http://www.w3.org/2000/svg" viewBox="0 0 505.53 548.49">
  <defs>
    <style>
      .cls-1 {
        fill: #f7eacf;
      }

      .cls-1, .cls-2, .cls-3, .cls-4, .cls-5, .cls-6 {
        stroke-width: 0px;
      }

      .cls-2 {
        fill: #401704;
      }

      .cls-3 {
        fill: #dec69f;
      }

      .cls-4 {
        fill: #ba6b34;
      }

      .cls-5 {
        fill: #fdfcfb;
      }

      .cls-6 {
        fill: #fd824b;
      }
    </style>
  </defs>
  <path class="cls-2" d="M133.71,520.44c5.99,0,11.98,0,17.96-.64,2.02-.22,2.93-.77,3.05-2.91.17-3.19,1.09-6.35,2.75-9,2.21-3.53,1.43-5.25-2.16-7.12-12.86-6.7-24.6-15.05-35.34-24.82-1.52-1.38-2.77-3.2-5.25-3.49-24.38-2.84-42.22-15.86-55.49-35.89-4.88-7.37-9.31-15.02-12.24-23.39-1.34-3.83-4.6-5.56-7.39-7.82-20.49-16.58-34.18-37.66-38.14-63.67-5.56-36.62,4.41-68.1,35.57-90.52,12.69-9.13,27.47-13.32,43-14.55,2.75-.22,4.59-1.1,6.27-3.26,3.47-4.47,7.1-8.83,10.88-13.04,1.57-1.75,1.71-3.04.85-5.26-10.93-28.31-10.13-56.65.43-84.84,1.33-3.55,1.39-5.55-1.62-8.43-13.35-12.73-24.92-26.82-31.46-44.46-3.64-9.81-5.13-19.96-5.42-30.33-.14-4.96,2.02-8.5,7.18-9.2,2.34-.32,2.46-1.02,2.19-3.1-1.12-8.53-.17-16.98,1.93-25.25C73.66.01,79.12-2.28,87.09,3.09c27.74,18.68,58.94,27.4,91.51,32.34,2.24.34,4.21-.12,6.28-.93,44.35-17.31,89.4-19.02,134.41-3.77,12.28,4.16,23.48,3.95,35.41,1.48,26.31-5.46,51.31-14.07,73.59-29.61,6.9-4.81,12.34-2.87,15.08,5.11,2.91,8.48,3.2,17.33,2.4,26.18-.23,2.5-.18,3.78,2.86,4.27,5.65.91,6.72,5.49,6.63,10.23-.2,10.21-1.87,20.16-5.4,29.84-6.35,17.43-17.63,31.21-31.47,43.07-2.96,2.53-3.25,4.37-1.76,7.88,9.82,23.15,11.5,47.1,5.43,71.4-1.93,7.74-2.46,14.32,5.46,19.37,6.09-4.96,13.3-9.05,21.83-10.61,23.26-4.24,46.02,8.51,53.5,30.15,7.8,22.57-1.83,46.41-23.41,57.47-2.69,1.38-2.91,2.42-1.96,5.25,14.39,42.69,13.6,84.83-5.95,125.82-6.93,14.53-16.92,26.99-29.36,37.5-6.51,5.5-12.72,7.1-20.44,2.86-3.55-1.95-7.16-5.95-11-4.83-3.43,1.01-6.02,4.99-8.89,7.77-12.81,12.38-27.63,21.86-43.35,29.99-2.3,1.19-2.03,2.09-.94,3.71,2.08,3.1,3.61,6.63,3.73,10.22.14,4.25,2.22,4.73,5.61,4.85,25.97.92,51.92,2.28,77.74,5.4,3.96.48,7.9,1.22,11.79,2.11,2.63.6,5.41,1.65,5.22,5.06-.17,3.12-2.6,4.54-5.3,5.23-7.6,1.92-15.38,2.85-23.16,3.63-51.43,5.15-103,7.08-154.68,6.95-54.31-.14-108.61-.37-162.83-4.05-17.94-1.22-35.91-2.28-53.57-6.02-.81-.17-1.64-.3-2.44-.52-2.66-.75-5.41-1.79-5.41-5,0-3.41,2.8-4.68,5.67-5.4,6.14-1.53,12.4-2.37,18.69-2.89,17.38-1.42,34.77-2.71,52.15-4.06,1.01.39,2.01.39,2.99-.1ZM137.34,271.45c-1.35-1.18-2.69-2.37-4.04-3.55-1.42-1.14-2.75-2.39-4.26-3.4-26.28-17.47-63.34-15.21-87.89,5.34-22.1,18.5-29.84,55.06-17.6,83.17.31,2.63,1.4,4.91,3.02,6.97,1.09,2.69,2.52,5.19,4.36,7.43.06.49-.03,1.06.2,1.45,13.96,23.48,33.95,38.35,61.18,42.99,2.27.39,3.4-.81,4.7-2.08,9.5-9.31,19.02-18.59,28.49-27.93,14.81-14.61,29.39-29.48,45.27-42.94,3.14-2.67,4.45-4.97,3.53-8.78-.35-1.45-.45-2.96-.69-4.43-1.34-8.28-4.02-16.02-9.27-22.71-1-1.5-2.16-2.91-2.96-4.51-4.46-8.89-11.25-15.78-18.73-22.08-1.46-1.98-2.91-3.97-5.31-4.94ZM150.31,372.12c-4.77,2.88-7.68,7.72-11.8,11.23-3.11,2.65-2.42,4.33.17,6.63,13.86,12.36,27.66,24.79,41.44,37.24,2.89,2.61,5.46,2.87,7.93-.45,5.65-3.97,10.13-9.02,13.74-14.88,1.68-.71,2.14-2.44,3.15-3.72,1.86-2.37.92-3.16-1.63-3.95-17.45-5.4-31.04-16.08-41.8-30.69-5-6.79-5.15-6.67-11.19-1.41ZM318.76,499.58c-6.31-.53-12.12,1.14-17.44,4.38-4.97,3.02-8.08,7.24-7.44,13.44.59,4.85,3.26,8.16,7.61,10.17,2.39,1.1,3.8.56,3.74-2.42-.07-3.48.07-6.97.05-10.46-.02-2.88.38-5.59,3.99-5.66,3.67-.07,4.73,2.6,4.84,5.68.13,3.65-.06,7.31.06,10.96.14,4.22,3.54,2.47,5.65,2.79,2,.31,4.07.22,3.96-2.87-.13-3.48.04-6.97-.05-10.46-.11-4.16,1.61-6.3,5.97-5.8,1.55,1.66,2.14,3.6,2.04,5.9-.14,3.14-.1,6.29,0,9.44.11,3.87,1.54,4.65,4.91,2.81,6.89-3.75,8.59-12.19,3.4-18.13-5.35-6.13-12.11-9.64-20.4-9.79-.29-.2-.58-.2-.87.01ZM182.54,504.27c-2.86.15-4.25,2.51-5.87,4.25-5.54,5.97-4.47,14.09,2.26,18.42,1.08.69,2.29,1.74,3.64,1.22,1.66-.63.88-2.3.91-3.51.09-3.65,0-7.31.04-10.97.03-2.86,1.24-4.98,4.34-4.95,2.95.03,3.84,2.35,3.95,4.83.16,3.65.35,7.33.06,10.96-.33,4.2,2.21,3.92,5.03,3.96,2.98.04,5.23-.14,4.91-4.14-.29-3.63-.02-7.31-.06-10.96-.03-2.96,1.43-4.22,4.3-4.14,2.74.08,4.38,1.09,4.3,4.17-.1,3.99.05,7.98.01,11.96-.03,3.37,1.67,3.51,4.16,2.36,4.69-2.17,7.51-7.79,6.86-13.68.23-2.15-.78-3.87-2.04-5.41-7.35-8.97-25.35-13.3-36.81-4.38ZM426.67,33.53c.49-1.54,1.49-3.02.55-4.73-.02-2.45-1.45-2.19-2.86-1.31-2.32,1.44-4.37,3.42-6.82,4.55-25.07,11.61-51.4,18.76-78.76,22.46-7.29.99-14.11,1.31-20.46-3.14-1.46-1.02-3.35-1.44-5.06-2.08-37.82-14.05-75.93-13.57-113.1.95-11.6,4.53-21.85,4.5-33.09,2.64-2.63-.43-5.27-.79-7.88-1.28-24.69-4.58-48.67-11.2-70.3-24.54-.74-.46-1.34-1.14-1.98-.17-.65.97.09,1.89.44,2.79-.53,2.81.47,5.3,1.67,7.74.93,7.7,4.77,13.98,9.48,19.91,1.68,2.12,5.21,4.5,3.74,6.99-1.74,2.95-5.83,1.47-8.75.78-4.43-1.04-8.7-2.75-13.88-4.46,4.57,12.12,9.84,22.65,19.4,30.52,7.87,6.48,7.78,6.43,15.91,1.14,2.01-1.31,2.22-2.31,1.3-4.37-2.34-5.26-1.71-6.94,3.78-8.84,8.02-2.78,16.09-5.4,24.46-7.03,2.67-.52,7.21.47,5.73-5.16-.26-.97,1.31-1.79,2.47-2.16,1.25-.4,2.67-.52,3.2-2.03.59.04,1.19.08,1.78.12.37.67.72.69,1.06-.02,6.64-.67,13.15.77,19.72,1.21,5.23.35,10.25,2.57,15.6,1.7.77.97,1.85,1.37,3,1.63,23.03,5.18,42.3,16.7,57.4,34.8,3.55,4.26,5.08,2.65,7.54-.54,9.99-12.96,22.78-22.26,37.95-28.25,6.77-2.67,13.68-4.98,20.52-7.46.66.09,1.32.18,1.98.27.46.38.89.38,1.3-.07,9.61-1.58,19.24-3.07,29-3.36,4.66.91,9.32,1.83,13.98,2.74-1.73,4.04-.33,6.13,3.91,7.07,7.78,1.72,15.89,2.82,23.13,5.9,7.33,3.12,13.5,1.72,20.02-1.1,2.9-1.25,5.83-2.48,8.57-4.02,4.05-2.29,7.88-4.93,11.12-8.35,1.02-1.08,1.72-2.32.87-3.53-1.09-1.56-1.91.28-2.86.61-4.55,1.57-8.96,3.65-13.92,3.61-4.23-.03-4.89-1.07-2.82-4.65,1.58-2.74,3.45-5.3,5-8.05,3.44-6.06,7.03-12.1,6.96-19.43ZM399.58,249.54l.1-.13c-4.27.21-6.57,3.54-9.13,6.16-10.78,11.03-16.46,24.94-20.96,39.28-7.34,23.43-7.04,47.32-2.2,71.11,3.37,16.54,9.91,31.94,19.99,45.67,1.35,2.45,2.8,4.83,5.13,6.51,6.68,9.45,13.86,18.4,23.83,24.66.28.3.55.75.93.15.05-.09-.28-.41-.44-.63-.2-.63-.32-1.3-.6-1.89-7.27-15.67-11.89-32.13-14.12-49.22-.73-5.58-.41-11.3-.38-16.96.01-2.14.3-4.61,3.28-4.72,3.11-.12,3.77,2.16,4.03,4.66.1.99.32,1.98.36,2.97.31,8.01,1.54,15.89,3.3,23.69,3.39,15.01,8.16,29.5,16.36,42.69,2.53,4.06,3.47,4.14,6.05,0,1.97-3.16,2.79-6.75,3.58-10.33,4.18-18.95,1.66-37.74-1.38-56.52-.88-5.41-2.06-10.8-1.8-16.34.08-1.73.35-3.47,2.46-3.79,1.96-.3,3.1.87,3.7,2.63,1.01,2.99,2.16,5.95,2.99,8.99,4.81,17.67,6.39,35.79,7.16,54.26,1.85-1.17,2.13-2.91,2.87-4.31,11.63-22.12,14.24-45.97,12.39-70.35-1.02-13.4-4.06-26.57-9.47-39.08-1.77-4.09-4.29-6.06-8.64-6.93-23.41-4.7-39.56-27.89-38.03-50.59.43-6.39.13-6.54-6.27-4.76-1.3.36-2.58.68-3.52,1.72-.63.34-1.73.14-1.56,1.38ZM428.93,257.41c.87,17.89,16.68,30.1,35.11,27.09,12.4-2.02,22.58-12.39,24.23-24.66,1.65-12.3-5.25-25.63-15.65-30.23-10.06-6.5-20.49-6.46-30.52-.56-10.63,6.26-14.7,16.16-13.18,28.36ZM300.65,257.68c3.63,2.16,7.65,3.26,11.74,3.88,22.6,3.41,42.4-2.73,59.92-17.29,41.86-34.8,45.51-98.32,7.45-135.46-9.02-8.8-19.41-15.64-32.16-18.01-24.85-6.58-46.33.01-64.88,17.05-9.88,9.07-16.21,20.56-20.54,33.18-.75,2.2-1.58,3.66-4.45,3.63-2.92-.03-3.37-1.57-4.17-3.79-2.65-7.37-6.05-14.43-10.67-20.79-16.79-23.09-39-35.16-67.91-30.88-38.81,5.74-64.62,39.43-64.71,80.37-3.27,32.38,16.63,69.26,46.34,84.28,20.2,10.22,41.08,12.79,62.08,1.65,4.03.16,7.13,1.81,8.4,5.8,1.33,4.22-1.24,6.99-4.14,9.38-6.74,5.56-14.68,8.43-23.18,9.83-9.61,1.58-19.2,1.13-28.72-1.07,0,.59-.12.98.02,1.2.54.84,1.17,1.62,1.76,2.42,10.03,13.5,16.47,28.44,18.42,45.26.2,1.69-.95,4.58,1.82,5,2.67.41,5.62.96,8.02-1.44,1.18-1.19,2.14-3.32,4.47-2.3,2.41,1.06,3.22,3.19,3.51,5.64.86,7.31-5.13,13.76-13.55,13.91-3.24.06-4.12,1.12-4.62,4.08-.98,5.9-2.18,11.8-3.82,17.55-1.11,3.93-.1,6.72,2.62,9.42,5.2,5.16,11.88,7.21,18.62,9.11,11.6,3.26,14.93,8.8,12.38,20.66-1.59,7.42-6.15,13.19-10.28,19.21-2.64,2.74-5.07,5.74-7.98,8.17-5.7,4.77-12.1,9.19-19.79,7.84-5.04-.89-7.78.77-11.12,3.78-8.57,7.73-18.5,13.42-29.93,17.91,2.16,1.77,3.76,3.17,5.45,4.45,7.71,5.86,16.13,10.56,24.46,15.45,3.22,1.89,5.7,1.99,9.14.4,20.69-9.58,44.68-2.32,56.71,17.01,1.4,2.25,2.83,3.23,5.53,3.19,9.82-.15,19.64-.15,29.46.05,3.17.06,4.9-.76,6.58-3.74,10.39-18.46,38-26.71,56.8-16.92,3.34,1.74,5.67,1.41,8.65-.17,16.97-9.04,32.7-19.78,46.87-32.84,2.88-2.65,2.67-3.93.05-6.45-16.94-16.31-29.24-35.69-37.59-57.62-5.92-15.56-8.16-31.83-9.33-48.31.09-22.04,2.95-43.62,11.46-65.05-7.24,2.64-13.71,3.83-20.3,4.63-6.85.83-13.66.92-20.38-.42-10.44-2.09-20.35-5.34-26.59-14.99-.28-8.05,2.66-10.38,10.08-8.04.62.2,1.32.14,1.98.19ZM77.42,427.27c7.77,10.61,16.12,20.94,29.51,23.78,18.26,3.87,33.34-4.25,47.2-15.14,2.17-1.7.57-3.03-.98-3.72-5.41-2.41-10.85-4.41-17.01-4.57-10.03-.25-19.81,1.98-29.79,2.13-9.67.15-19.14-1.27-28.93-2.48ZM147.97,411.98c-5.74-7.56-12.23-12.28-17.83-17.87-.81-.81-1.74-1.03-2.62-.16-5.95,5.82-11.88,11.66-17.82,17.49,12.74-1.16,24.78-2.39,38.28.55ZM173.67,349.77c-4.14,4.26-8.27,8.54-12.43,12.78-.91.93-1.46,1.86-.49,3.02,2.7,3.22,4.92,6.9,8.58,9.69,1.71-8.57,4.27-16.5,4.34-25.5Z"/>
  <path class="cls-3" d="M133.71,520.44c-.98.49-1.98.49-2.99.1.96-1.14,1.96-1.2,2.99-.1Z"/>
  <path class="cls-5" d="M110.27,169.57c.1-40.94,25.91-74.63,64.71-80.37,28.91-4.28,51.12,7.8,67.91,30.88,4.62,6.35,8.02,13.42,10.67,20.79.8,2.22,1.26,3.75,4.17,3.79,2.86.03,3.69-1.43,4.45-3.63,4.32-12.61,10.66-24.11,20.54-33.18,18.55-17.04,40.03-23.63,64.88-17.05.36.73.54,1.64,1.09,2.16,8.98,8.44,13.75,19.34,17.99,30.57.09,1.15-.01,2.37.31,3.45,4.91,16.44,3.48,32.98-.88,49.04-7.54,27.79-26.41,46.6-50.66,60.84-6.83,4.01-14.64,5.05-21.62,8.53-8.65,4.32-8.84,4.1-7.17,13.61.39,2.21-1.43,5.17,1.91,6.54,6.24,9.65,16.15,12.9,26.59,14.99,6.72,1.34,13.53,1.25,20.38.42,6.59-.8,13.06-1.99,20.3-4.63-8.51,21.44-11.37,43.02-11.46,65.05-1.26.13-1.53,1.05-1.74,2.08-.8,3.9-1.52,7.83-2.47,11.7-8.43,34.63-27.95,60.27-61.14,74.5-21.07,9.03-42.69,8.92-64.46,2.57-1.66-.48-3.73-.73-4.15-3.05,4.13-6.03,8.69-11.8,10.28-19.21,2.55-11.86-.78-17.4-12.38-20.66-6.74-1.9-13.43-3.95-18.62-9.11-2.72-2.7-3.73-5.49-2.62-9.42,1.63-5.75,2.83-11.65,3.82-17.55.49-2.96,1.37-4.02,4.62-4.08,8.42-.15,14.41-6.61,13.55-13.91-.29-2.44-1.1-4.58-3.51-5.64-2.34-1.02-3.29,1.11-4.47,2.3-2.39,2.4-5.35,1.85-8.02,1.44-2.77-.43-1.63-3.31-1.82-5-1.94-16.82-8.39-31.76-18.42-45.26-.59-.8-1.22-1.58-1.76-2.42-.14-.22-.02-.61-.02-1.2,9.52,2.2,19.12,2.65,28.72,1.07,8.49-1.39,16.44-4.27,23.18-9.83,2.9-2.39,5.47-5.16,4.14-9.38-1.26-4-4.37-5.64-8.4-5.8-1-1.2-2.39-.99-3.7-.97-6.97.12-13.93.06-20.85-.99-1.79-.27-4.24.06-4.06-2.47.16-2.31,2.61-1.25,4.1-1.59,6.1-1.4,12.28-2.6,18.84-6.94-2.34,0-3.17-.1-3.98.01-18.7,2.7-36.66,1.11-53.13-9.15-10.48-6.53-19.74-14.6-26.84-24.62-8.45-11.92-11.88-26.44-18.8-39.22ZM282.77,197.67c.12-17.59-10.06-29-23.61-29.42-15-.47-25.54,9.16-26.1,24.75-.64,17.9,8.89,30.79,21.94,41.68,1.53,1.28,2.96,1.28,4.49.08,13.09-10.23,22.45-22.64,23.29-37.08ZM165.47,167.96c-.03,15.13,11.41,26.95,26.22,27.1,14.34.14,26.79-12.32,26.78-26.8-.01-15.49-11.74-27.15-27.26-27.1-14.73.05-25.71,11.47-25.74,26.8ZM323,141.13c-14.87,0-26.22,11.58-26.22,26.77,0,15.35,11.49,26.94,26.71,26.93,14.35,0,25.84-11.59,25.91-26.11.07-16.1-10.92-27.59-26.39-27.59ZM221.65,370.22c8.79.11,15.66-8.94,12.61-16.61-1.58-3.97-4.01-4.59-7.03-1.78-4.18,3.89-6.66,4.04-11.3.48-1.6-1.22-3.06-2.89-5.26-1.74-2.1,1.11-2.74,3.22-2.91,5.46-.63,7.96,5.37,14.08,13.9,14.18ZM318.84,349.39c8.28-.01,14.14-6.26,13.5-14.34-.17-2.1-.86-3.64-2.87-4.81-2.24-1.3-3.42.06-4.76,1.2-4.03,3.44-8.01,3.28-12.16.18-1.36-1.01-2.67-2.93-4.75-1.66-1.99,1.21-2.64,3.26-2.76,5.53-.36,7.33,6.15,13.91,13.8,13.9ZM256.39,349.41c8.7.03,15.67-8.41,13.2-16-1.31-4.04-3.71-4.99-6.67-2.32-4.2,3.79-8.23,3.54-12.59.37-1.35-.98-2.72-2.92-4.8-1.42-1.87,1.35-2.59,3.29-2.6,5.64-.03,7.74,5.74,13.7,13.45,13.73ZM223.85,320.57c8.86.05,15.23-7.77,12.82-15.92-.78-2.63-1.97-5.27-5.56-2.83q-7,4.75-14.1.11c-3.57-2.33-5.91-1.38-6.83,2.76-1.73,7.77,5.21,15.83,13.68,15.88ZM307.97,358.31c-.18-3.05-.46-5.63-3.23-7.16-1.53-.85-2.79-.88-3.97.47-3.95,4.5-7.76,3.81-11.99.14-3.24-2.82-6.13-1.56-7.09,2.81-1.13,5.21.78,9.54,4.7,12.85,4.33,3.67,9.36,4.16,14.41,1.67,4.48-2.22,6.82-6.1,7.17-10.78ZM237.34,413.87c8.18.08,14.8-7.34,13.37-14.96-.79-4.19-3.9-5.51-7.04-2.97-4.96,4.01-7.22,4.11-12.26.44-1.47-1.07-2.75-2.51-4.84-1.43-2.16,1.12-2.94,2.96-3.04,5.29-.33,7.79,5.47,13.54,13.81,13.62ZM264.54,401.52c.07,6.82,6.95,13.12,13.95,12.77,7.23-.36,13.65-7.53,12.91-14.4-.54-4.95-3.67-6.45-7.68-3.42-3.64,2.75-7.12,3.15-10.94.51-1.66-1.14-3.05-3.52-5.59-2.04-2.51,1.46-2.61,4.04-2.63,6.57ZM286.14,320.55c8.18.01,15.01-8.62,12.67-16.04-1.12-3.56-3.33-4.3-6.23-2.1-5.88,4.45-8.09,4.45-13.49-.01-3.31-2.74-5.81-1.81-6.53,2.44-1.33,7.84,5.47,15.7,13.58,15.71Z"/>
  <path class="cls-3" d="M210.44,429.17c.42,2.32,2.49,2.56,4.15,3.05,21.76,6.34,43.38,6.46,64.46-2.57,33.19-14.23,52.71-39.86,61.14-74.5.94-3.87,1.66-7.79,2.47-11.7.21-1.03.48-1.96,1.74-2.08,1.16,16.48,3.4,32.75,9.33,48.31,8.35,21.93,20.66,41.31,37.59,57.62,2.62,2.52,2.83,3.8-.05,6.45-14.17,13.06-29.9,23.8-46.87,32.84-2.97,1.58-5.31,1.91-8.65.17-18.81-9.79-46.41-1.55-56.8,16.92-1.68,2.98-3.41,3.81-6.58,3.74-9.82-.2-19.64-.2-29.46-.05-2.71.04-4.13-.94-5.53-3.19-12.03-19.33-36.02-26.59-56.71-17.01-3.44,1.59-5.92,1.49-9.14-.4-8.33-4.89-16.75-9.6-24.46-15.45-1.69-1.28-3.29-2.69-5.45-4.45,11.43-4.49,21.36-10.17,29.93-17.91,3.34-3.01,6.08-4.67,11.12-3.78,7.69,1.35,14.09-3.06,19.79-7.84,2.9-2.43,5.33-5.43,7.98-8.17Z"/>
  <path class="cls-6" d="M142.66,276.39c7.49,6.31,14.27,13.2,18.73,22.08.8,1.6,1.96,3.01,2.96,4.51-.87,1.75.39,3.21.66,4.8.8,4.71,1.79,9.42,1.07,14.23-1.23,8.22-5.45,14.94-11.12,20.73-15.59,15.93-31.79,31.24-48.3,46.22-12.14,11.01-26.29,12.78-41.1,5.47-8.4-4.15-15.81-9.59-22.74-15.96-3.98-3.65-6.86-8.53-11.88-11.05-1.85-2.25-3.27-4.74-4.36-7.43.15-3.96.1-7.89-2.14-11.4-.15-.99-.3-1.99-.45-2.98.8-1.8.35-3.45-.59-5.05-.13-4.23-.27-8.46-.4-12.69.93-1.36.87-2.82.41-4.31.08-1.35.16-2.71.23-4.06.71-.61.77-1.31.3-2.09l.36-3.03c3.03-9.11,5.92-18.27,10.13-26.94.23-.21.36-.48.39-.79,1.1-.33,1.83-.96,1.7-2.23,1.09-1.28,2.18-2.55,3.27-3.83,1.24-.16,1.84-.88,1.87-2.11l.03-.06c6.03-3.1,10.94-7.76,16.36-11.7,1.16-.38,2.33-.77,3.49-1.15.51.45.71.26.7-.34.38-.2.75-.39,1.13-.59,3.08.58,5.62-.29,7.5-2.86.63-.14,1.26-.28,1.88-.42.61.78,1.35.63,2.21.46,7.48-1.46,15.04-1.6,22.63-1.41,3.05.08,6.05,2.05,9.15.25.9.18,1.8.36,2.71.53,7.58,3.47,15.68,5.79,22.9,10.09.62.37,1.61.09,2.43.12.28.11.55.23.82.35,1.53,2.8,3.87,4.37,7.06,4.63ZM39.87,288.7c-.01,5.02,3.4,8.65,8.22,8.74,4.93.1,8.61-3.51,8.54-8.36-.07-4.76-3.47-8.32-8.05-8.42-5.2-.11-8.71,3.12-8.72,8.03Z"/>
  <path class="cls-4" d="M401.14,248.16c.95-1.04,2.23-1.36,3.52-1.72,6.41-1.78,6.7-1.63,6.27,4.76-1.52,22.7,14.62,45.89,38.03,50.59,4.36.87,6.87,2.84,8.64,6.93,5.42,12.51,8.45,25.68,9.47,39.08,1.85,24.38-.76,48.23-12.39,70.35-.74,1.4-1.02,3.14-2.87,4.31-.76-18.48-2.34-36.6-7.16-54.26-.83-3.04-1.98-6-2.99-8.99-.6-1.77-1.74-2.93-3.7-2.63-2.11.32-2.38,2.06-2.46,3.79-.25,5.54.93,10.92,1.8,16.34,3.04,18.78,5.56,37.57,1.38,56.52-.79,3.58-1.61,7.17-3.58,10.33-2.58,4.13-3.52,4.06-6.05,0-8.2-13.18-12.97-27.67-16.36-42.69-1.76-7.8-2.99-15.68-3.3-23.69-.04-.99-.25-1.98-.36-2.97-.26-2.5-.92-4.78-4.03-4.66-2.98.11-3.27,2.58-3.28,4.72-.04,5.66-.35,11.38.38,16.96,2.23,17.09,6.85,33.55,14.12,49.22.28.6.4,1.26.6,1.89-.17.16-.33.32-.5.48-9.96-6.27-17.15-15.22-23.83-24.67-1.26-3.82-1.88-7.9-4.58-11.12-3.11-6.41-4.67-13.36-6.83-20.09-12.45-38.67-11.24-76.68,5.65-113.94,3.72-8.21,8.72-15.66,12.93-23.57,0,0-.1.13-.1.13.82-.13,1.37-.55,1.56-1.38Z"/>
  <path class="cls-1" d="M288.59,265.53c-3.34-1.37-1.52-4.33-1.91-6.54-1.67-9.51-1.48-9.29,7.17-13.61,6.97-3.48,14.79-4.52,21.62-8.53,24.24-14.25,43.12-33.06,50.66-60.84,4.36-16.06,5.78-32.6.88-49.04-.32-1.08-.22-2.3-.31-3.45,3.88-.94,5.72,1.73,7.62,4.3,8.53,11.57,14.16,24.23,15.26,38.78,1.3,17.27-1.18,33.64-11.6,47.92-16.6,22.76-39.88,34.85-66.73,41.25-3.53.84-7.38-.4-10.59,1.91-.66-.06-1.36,0-1.98-.19-7.41-2.34-10.35,0-10.08,8.04Z"/>
  <path class="cls-3" d="M300.65,257.68c3.2-2.31,7.06-1.07,10.59-1.91,26.84-6.4,50.13-18.49,66.73-41.25,10.41-14.28,12.9-30.65,11.6-47.92-1.1-14.55-6.73-27.21-15.26-38.78-1.9-2.57-3.74-5.24-7.62-4.3-4.24-11.22-9.01-22.12-17.99-30.57-.55-.52-.74-1.43-1.09-2.16,12.75,2.37,23.15,9.21,32.16,18.01,38.06,37.14,34.4,100.66-7.45,135.46-17.52,14.56-37.32,20.7-59.92,17.29-4.09-.62-8.12-1.71-11.74-3.88Z"/>
  <path class="cls-4" d="M320.43,65.9c-6.85,2.48-13.76,4.79-20.52,7.46-15.17,5.99-27.96,15.29-37.95,28.25-2.46,3.19-3.99,4.8-7.54.54-15.09-18.11-34.37-29.62-57.4-34.8-1.15-.26-2.24-.66-3-1.63.64-1.6,2.28-1.84,3.56-2.51,33.85-17.75,68.84-19.82,104.73-7.21,6.49,2.28,13.05,4.84,18.13,9.9Z"/>
  <path class="cls-5" d="M320.43,65.9c-5.08-5.05-11.64-7.62-18.13-9.9-35.89-12.6-70.89-10.54-104.73,7.21-1.28.67-2.91.91-3.56,2.51-5.35.88-10.37-1.34-15.6-1.7-6.57-.45-13.08-1.88-19.71-1.21-.35,0-.71.01-1.07.02-.59-.04-1.19-.08-1.78-.12-.42-1.6-1.77-1.55-3.01-1.7-1.55-.53-3.08-1.15-4.67-1.56-15.17-3.89-30.01-8.65-43.23-17.34-6-3.94-11.75-8.27-17.61-12.42-.36-.91-1.09-1.83-.44-2.8.64-.97,1.24-.28,1.98.17,21.63,13.34,45.61,19.97,70.3,24.54,2.62.49,5.26.84,7.88,1.28,11.24,1.86,21.49,1.89,33.09-2.64,37.18-14.52,75.28-15.01,113.1-.95,1.71.64,3.6,1.05,5.06,2.08,6.35,4.46,13.17,4.13,20.46,3.14,27.36-3.7,53.69-10.85,78.76-22.46,2.45-1.14,4.5-3.11,6.82-4.55,1.41-.87,2.83-1.14,2.86,1.31-1.42-.34-2.11.8-2.91,1.55-11.2,10.43-23.68,18.67-38.47,23.23-10.96,3.38-21.92,6.68-33.12,9.15-9.76.29-19.39,1.78-29,3.36-.46-.39-.89-.37-1.31.07-.66-.09-1.32-.18-1.98-.27Z"/>
  <path class="cls-1" d="M110.27,169.57c6.92,12.77,10.35,27.29,18.8,39.22,7.1,10.02,16.36,18.09,26.84,24.62,16.46,10.26,34.43,11.85,53.13,9.15.8-.12,1.64-.01,3.98-.01-6.55,4.34-12.73,5.54-18.84,6.94-1.48.34-3.93-.73-4.1,1.59-.18,2.53,2.27,2.2,4.06,2.47,6.92,1.05,13.88,1.1,20.85.99,1.31-.02,2.7-.23,3.7.97-21,11.14-41.88,8.57-62.08-1.65-29.71-15.02-49.61-51.9-46.34-84.28Z"/>
  <path class="cls-4" d="M152.84,61.01c1.24.15,2.59.1,3.01,1.7-.54,1.52-1.95,1.64-3.2,2.03-1.15.37-2.72,1.18-2.47,2.16,1.49,5.64-3.05,4.64-5.73,5.16-8.37,1.63-16.44,4.25-24.46,7.03-5.49,1.9-6.12,3.58-3.78,8.84.92,2.07.71,3.06-1.3,4.37-8.14,5.29-8.04,5.34-15.91-1.14-9.56-7.87-14.83-18.4-19.4-30.52,5.17,1.7,9.44,3.42,13.88,4.46,2.91.68,7.01,2.17,8.75-.78,1.47-2.5-2.06-4.88-3.74-6.99-4.72-5.93-8.55-12.21-9.48-19.91.73.35,1.58.57,2.19,1.08,12.02,10.08,25.75,16.93,40.79,21.1,6.79,1.88,13.65,4.74,20.85,1.41Z"/>
  <path class="cls-5" d="M428.93,257.41c-1.52-12.2,2.54-22.1,13.18-28.36,10.03-5.9,20.46-5.94,30.52.56.09,2.1,1.51,3.64,2.38,5.4,2.66,5.38,2.65,11.12.93,16.47-6.04,18.7-31.99,22.66-42.47,9.54-1.18-1.48-2.28-3.35-4.53-3.61Z"/>
  <path class="cls-4" d="M30.94,367.41c5.01,2.52,7.9,7.4,11.88,11.05,6.93,6.37,14.34,11.81,22.74,15.96,14.8,7.31,28.96,5.54,41.1-5.47,16.51-14.97,32.7-30.29,48.3-46.22,5.67-5.79,9.89-12.51,11.12-20.73.72-4.81-.27-9.52-1.07-14.23-.27-1.59-1.53-3.05-.66-4.8,5.25,6.69,7.93,14.42,9.27,22.71.24,1.48.34,2.99.69,4.43.92,3.81-.39,6.11-3.53,8.78-15.88,13.46-30.46,28.33-45.27,42.94-9.47,9.34-18.99,18.63-28.49,27.93-1.3,1.27-2.42,2.47-4.7,2.08-27.23-4.63-47.22-19.51-61.18-42.99-.23-.39-.14-.96-.2-1.45Z"/>
  <path class="cls-5" d="M399.68,249.41c-4.21,7.91-9.21,15.37-12.93,23.57-16.9,37.26-18.1,75.27-5.65,113.94,2.17,6.73,3.73,13.68,6.83,20.09-.75,1.47,1.51,3.3-.55,4.61-10.08-13.73-16.62-29.13-19.99-45.67-4.84-23.79-5.14-47.68,2.2-71.11,4.49-14.34,10.18-28.25,20.96-39.28,2.56-2.62,4.85-5.95,9.13-6.16Z"/>
  <path class="cls-4" d="M77.42,427.27c9.79,1.21,19.26,2.62,28.93,2.48,9.97-.15,19.76-2.38,29.79-2.13,6.16.16,11.6,2.16,17.01,4.57,1.56.7,3.15,2.02.98,3.72-13.86,10.88-28.94,19.01-47.2,15.14-13.39-2.84-21.74-13.17-29.51-23.78Z"/>
  <path class="cls-4" d="M426.67,33.53c.07,7.33-3.52,13.36-6.96,19.43-1.56,2.75-3.43,5.31-5,8.05-2.06,3.59-1.4,4.62,2.82,4.65,4.96.04,9.37-2.05,13.92-3.61.95-.33,1.77-2.17,2.86-.61.85,1.21.15,2.45-.87,3.53-3.23,3.43-7.06,6.07-11.12,8.35-2.74,1.55-5.67,2.77-8.57,4.02-6.52,2.82-12.69,4.22-20.02,1.1-7.24-3.08-15.35-4.18-23.13-5.9-4.25-.94-5.64-3.03-3.91-7.07,1.46-1.77,3.56-2.32,5.61-2.96,7.43-2.3,14.98-4.27,22.27-6.97,9.99-3.7,19.47-8.35,26.98-16.36,1.74-1.85,1.86-5.23,5.12-5.65Z"/>
  <path class="cls-3" d="M428.93,257.41c2.26.26,3.35,2.13,4.53,3.61,10.48,13.12,36.43,9.16,42.47-9.54,1.73-5.36,1.74-11.09-.93-16.47-.87-1.76-2.29-3.29-2.38-5.4,10.4,4.6,17.3,17.93,15.65,30.23-1.65,12.27-11.83,22.64-24.23,24.66-18.43,3-34.25-9.2-35.11-27.09Z"/>
  <path class="cls-5" d="M34.82,286.64c-.03.31-.16.57-.39.79-7.05,7.6-9.43,16.95-10.13,26.94-.12,1.01-.24,2.02-.36,3.03-1.03.56-1.42,1.22-.3,2.09-.08,1.35-.16,2.71-.23,4.06-1.04,1.35-.71,2.83-.41,4.31.13,4.23.27,8.46.4,12.69-.96,1.82-1.28,3.56.59,5.05.15.99.3,1.99.45,2.98-1.07,1.32-.7,2.93-.89,4.43-12.23-28.11-4.5-64.66,17.6-83.17,24.55-20.55,61.6-22.82,87.89-5.34,1.51,1,2.84,2.26,4.26,3.4-.19.19-.38.38-.56.58-2.91-.64-5.59-1.86-8.34-2.96-4.83-1.92-9.45-4.74-14.96-4.32-.9-.18-1.8-.36-2.71-.53-8.09-3.05-16.46-2.45-24.73-1.45-3.05.37-6.77-1.01-9.25,2.15-.63.14-1.26.28-1.88.42-2.73.34-5.63.26-7.5,2.86-.38.2-.75.39-1.12.59-.28.02-.51.13-.7.34-1.16.38-2.33.77-3.49,1.15-6.49,2.46-12.78,5.17-16.36,11.7,0,0-.03.06-.03.06-1.27.13-1.93.8-1.87,2.11-1.09,1.28-2.18,2.55-3.27,3.83-1.26.21-1.82.96-1.7,2.23Z"/>
  <path class="cls-6" d="M201.79,411.89c-3.61,5.85-8.09,10.91-13.74,14.88-1.9-.14-3.46-.89-4.83-2.28-9.67-9.83-20.16-18.8-30.18-28.25-10.51-9.91-10.34-10.09-.94-21.04.65.49,1.44.88,1.94,1.49,12.98,15.72,28.68,27.74,47.74,35.2Z"/>
  <path class="cls-6" d="M221.4,514.07c.65,5.88-2.17,11.51-6.86,13.68-2.49,1.15-4.19,1.01-4.16-2.36.03-3.99-.11-7.98-.01-11.96.08-3.09-1.56-4.09-4.3-4.17-2.88-.09-4.34,1.18-4.3,4.14.04,3.66-.23,7.33.06,10.96.32,4-1.93,4.18-4.91,4.14-2.82-.04-5.36.24-5.03-3.96.28-3.63.1-7.31-.06-10.96-.11-2.48-1-4.8-3.95-4.83-3.1-.03-4.31,2.09-4.34,4.95-.04,3.66.06,7.31-.04,10.97-.03,1.21.74,2.88-.91,3.51-1.35.51-2.56-.53-3.64-1.22-6.74-4.33-7.81-12.46-2.26-18.42,1.61-1.74,3.01-4.1,5.87-4.25,1.61,1.39,3.38.73,5.17.5,10.86-1.38,21.06-.28,29.24,8.07,1.28,1.3,2.68,1.84,4.45,1.23Z"/>
  <path class="cls-6" d="M329.68,509.33c-4.36-.5-6.08,1.64-5.97,5.8.09,3.48-.08,6.98.05,10.46.12,3.09-1.96,3.18-3.96,2.87-2.1-.33-5.51,1.43-5.65-2.79-.12-3.65.06-7.31-.06-10.96-.11-3.08-1.18-5.76-4.84-5.68-3.61.07-4.01,2.78-3.99,5.66.02,3.49-.12,6.97-.05,10.46.06,2.97-1.35,3.52-3.74,2.42-4.34-2-7.02-5.32-7.61-10.17.63-.15,1.58-.1,1.83-.49,4.62-7.22,11.7-10.85,19.4-13.71,1.58-.59,3.45-1.4,3.65-3.62.29-.21.58-.21.87-.01.98,1.76,2.8,2.65,4.12,4.02,1.92,1.99,5.14,2.64,5.93,5.75Z"/>
  <path class="cls-1" d="M201.79,411.89c-19.07-7.46-34.77-19.48-47.74-35.2-.51-.61-1.29-1-1.94-1.49-.6-1.03-1.19-2.06-1.78-3.08,6.04-5.26,6.2-5.37,11.19,1.41,10.76,14.61,24.35,25.29,41.8,30.69,2.55.79,3.49,1.58,1.63,3.95-1.01,1.28-1.47,3.01-3.15,3.72Z"/>
  <path class="cls-6" d="M426.67,33.53c-3.27.42-3.39,3.8-5.12,5.65-7.5,8.01-16.99,12.66-26.98,16.36-7.28,2.7-14.84,4.67-22.27,6.97-2.05.64-4.15,1.19-5.61,2.96-4.66-.91-9.32-1.83-13.98-2.74,11.2-2.47,22.17-5.77,33.13-9.15,14.79-4.56,27.27-12.8,38.47-23.23.8-.75,1.49-1.89,2.91-1.55.94,1.71-.06,3.19-.55,4.73Z"/>
  <path class="cls-4" d="M150.31,372.12c.59,1.03,1.19,2.06,1.78,3.08-9.4,10.95-9.57,11.13.94,21.04,10.02,9.45,20.51,18.42,30.18,28.25,1.36,1.39,2.93,2.14,4.83,2.28-2.46,3.32-5.04,3.06-7.93.45-13.78-12.45-27.58-24.88-41.44-37.24-2.58-2.3-3.28-3.98-.17-6.63,4.12-3.51,7.04-8.34,11.8-11.23Z"/>
  <path class="cls-6" d="M152.84,61.01c-7.2,3.33-14.07.47-20.85-1.41-15.04-4.17-28.77-11.01-40.79-21.1-.61-.51-1.45-.73-2.19-1.08-1.21-2.44-2.21-4.92-1.67-7.73,5.86,4.15,11.61,8.48,17.61,12.42,13.22,8.69,28.05,13.46,43.23,17.34,1.58.41,3.11,1.03,4.67,1.56Z"/>
  <path class="cls-3" d="M147.97,411.98c-13.49-2.94-25.54-1.71-38.28-.55,5.94-5.83,11.87-11.67,17.82-17.49.89-.87,1.81-.65,2.62.16,5.6,5.6,12.09,10.32,17.83,17.87Z"/>
  <path class="cls-4" d="M329.68,509.33c-.79-3.11-4.01-3.76-5.93-5.75-1.32-1.37-3.14-2.26-4.12-4.02,8.29.15,15.05,3.66,20.4,9.79,5.18,5.94,3.48,14.37-3.4,18.13-3.37,1.83-4.8,1.05-4.91-2.81-.09-3.14-.13-6.3,0-9.44.1-2.3-.49-4.23-2.04-5.9Z"/>
  <path class="cls-1" d="M221.4,514.07c-1.77.61-3.17.08-4.45-1.23-8.17-8.35-18.38-9.45-29.24-8.07-1.79.23-3.56.89-5.17-.5,11.46-8.92,29.46-4.58,36.81,4.38,1.27,1.55,2.28,3.27,2.04,5.41Z"/>
  <path class="cls-3" d="M173.67,349.77c-.07,8.99-2.63,16.93-4.34,25.5-3.66-2.79-5.88-6.47-8.58-9.69-.97-1.16-.42-2.09.49-3.02,4.16-4.25,8.29-8.52,12.43-12.78Z"/>
  <path class="cls-1" d="M318.76,499.58c-.2,2.22-2.07,3.04-3.65,3.62-7.71,2.86-14.78,6.49-19.4,13.71-.25.39-1.2.34-1.83.49-.64-6.21,2.47-10.42,7.44-13.44,5.33-3.24,11.13-4.9,17.44-4.38Z"/>
  <path class="cls-1" d="M387.39,411.63c2.06-1.31-.19-3.14.55-4.61,2.69,3.23,3.32,7.31,4.58,11.12-2.33-1.68-3.78-4.05-5.13-6.51Z"/>
  <path class="cls-1" d="M23.56,353.01c.18-1.5-.18-3.11.89-4.43,2.23,3.52,2.29,7.44,2.14,11.4-1.62-2.06-2.72-4.35-3.02-6.97Z"/>
  <path class="cls-3" d="M142.66,276.39c-3.2-.25-5.53-1.83-7.06-4.63.58-.1,1.17-.21,1.75-.31,2.41.96,3.85,2.96,5.31,4.94Z"/>
  <path class="cls-5" d="M137.34,271.45c-.58.1-1.17.21-1.75.31-.27-.12-.55-.24-.82-.35-.68-.98-1.35-1.95-2.03-2.93.18-.2.37-.39.56-.58,1.35,1.18,2.69,2.37,4.04,3.55Z"/>
  <path class="cls-5" d="M401.14,248.16c-.19.83-.75,1.25-1.56,1.38-.17-1.24.93-1.04,1.56-1.38Z"/>
  <path class="cls-4" d="M416.84,442.32c.16.22.49.54.44.63-.37.6-.65.15-.93-.15.16-.16.33-.32.49-.48Z"/>
  <path class="cls-4" d="M322.42,66.17c.41-.44.85-.46,1.31-.07-.41.45-.85.45-1.31.07Z"/>
  <path class="cls-4" d="M157.63,62.83c.36,0,.71-.01,1.07-.02-.34.71-.7.68-1.07.02Z"/>
  <path class="cls-2" d="M282.77,197.67c-.84,14.44-10.2,26.85-23.29,37.08-1.53,1.2-2.96,1.2-4.49-.08-13.05-10.88-22.58-23.77-21.94-41.68.56-15.59,11.1-25.22,26.1-24.75,13.56.42,23.73,11.83,23.61,29.42ZM251.56,202.48c.85,4.77,3.3,8.74,6.13,13.27,4.01-6.81,6.82-13.37,8.17-20.39.76-3.98-.73-7.49-5.2-8.8-5.42-2.18-9.57-.32-11.03,5.03-1.06,3.91.21,7.45,1.93,10.89Z"/>
  <path class="cls-2" d="M165.47,167.96c.03-15.33,11-26.75,25.74-26.8,15.51-.05,27.24,11.61,27.26,27.1.01,14.48-12.44,26.94-26.78,26.8-14.81-.15-26.25-11.97-26.22-27.1ZM198.68,161.45c-.03.8-.08,1.6-.09,2.39-.04,2.59.95,4.57,3.6,5.2,2.37.56,4.21-.44,5.37-2.56,1.05-1.93.96-3.87-.6-5.48-1.91-1.97-4.08-1.86-6.28-.43-.64.42-1.07,1.32-2.07.97-1.4-1.01-.07-2.1-.05-3.14.07-4.59-2.55-8.08-7.02-8.96-4.17-.82-7.14.93-8.86,4.68-1.74,3.78-.25,9.19,2.89,11.18,3.29,2.08,7.62,1.19,10.8-2.09.65-.67.63-2.42,2.32-1.76Z"/>
  <path class="cls-2" d="M323,141.13c15.47,0,26.46,11.49,26.39,27.59-.07,14.52-11.56,26.1-25.91,26.11-15.22.01-26.71-11.58-26.71-26.93,0-15.19,11.35-26.78,26.22-26.77ZM321.25,149.02c-4.42-.12-8.78,4.41-8.78,9.12,0,4.41,3.67,7.88,8.48,8.01,5.27.14,8.7-2.95,8.83-7.98.14-5.04-3.58-9.02-8.53-9.15ZM340.02,164.07c-.37-2.84-1.77-4.83-4.8-4.65-2.85.17-4.63,1.89-4.53,4.9.1,2.98,1.88,4.61,4.81,4.59,3.05-.02,4.41-1.91,4.53-4.83Z"/>
  <path class="cls-2" d="M221.65,370.22c-8.53-.1-14.53-6.22-13.9-14.18.18-2.25.81-4.36,2.91-5.46,2.2-1.16,3.66.51,5.26,1.74,4.64,3.55,7.12,3.4,11.3-.48,3.02-2.81,5.45-2.19,7.03,1.78,3.05,7.68-3.81,16.72-12.61,16.61Z"/>
  <path class="cls-2" d="M318.84,349.39c-7.65.01-14.17-6.56-13.8-13.9.11-2.27.77-4.31,2.76-5.53,2.08-1.27,3.4.64,4.75,1.66,4.15,3.1,8.13,3.26,12.16-.18,1.34-1.14,2.52-2.5,4.76-1.2,2.01,1.17,2.7,2.71,2.87,4.81.64,8.08-5.22,14.32-13.5,14.34Z"/>
  <path class="cls-2" d="M256.39,349.41c-7.7-.02-13.48-5.98-13.45-13.73,0-2.35.73-4.29,2.6-5.64,2.08-1.5,3.45.43,4.8,1.42,4.35,3.17,8.39,3.42,12.59-.37,2.96-2.67,5.36-1.73,6.67,2.32,2.46,7.59-4.5,16.03-13.2,16Z"/>
  <path class="cls-2" d="M223.85,320.57c-8.46-.05-15.4-8.11-13.68-15.88.92-4.14,3.26-5.09,6.83-2.76q7.1,4.62,14.1-.11c3.59-2.44,4.78.2,5.56,2.83,2.42,8.15-3.95,15.97-12.82,15.92Z"/>
  <path class="cls-2" d="M307.97,358.31c-.35,4.68-2.69,8.56-7.17,10.78-5.04,2.49-10.07,2-14.41-1.67-3.91-3.32-5.83-7.64-4.7-12.85.95-4.37,3.84-5.63,7.09-2.81,4.23,3.67,8.04,4.37,11.99-.14,1.19-1.35,2.44-1.32,3.97-.47,2.77,1.53,3.05,4.11,3.23,7.16Z"/>
  <path class="cls-2" d="M237.34,413.87c-8.33-.08-14.14-5.83-13.81-13.62.1-2.33.88-4.17,3.04-5.29,2.1-1.09,3.38.36,4.84,1.43,5.03,3.67,7.3,3.57,12.26-.44,3.13-2.53,6.25-1.22,7.04,2.97,1.44,7.62-5.19,15.04-13.37,14.96Z"/>
  <path class="cls-2" d="M264.55,401.52c.01-2.54.11-5.12,2.63-6.58,2.55-1.48,3.94.9,5.59,2.04,3.83,2.64,7.31,2.24,10.94-.51,4.01-3.03,7.14-1.54,7.68,3.42.75,6.87-5.68,14.04-12.91,14.4-6.99.35-13.87-5.95-13.94-12.77Z"/>
  <path class="cls-2" d="M286.14,320.55c-8.11-.01-14.91-7.88-13.58-15.71.72-4.24,3.22-5.17,6.53-2.44,5.4,4.46,7.61,4.46,13.49.01,2.9-2.2,5.11-1.46,6.23,2.1,2.33,7.42-4.49,16.05-12.67,16.04Z"/>
  <path class="cls-1" d="M39.87,288.7c0-4.92,3.51-8.15,8.72-8.03,4.57.1,7.97,3.66,8.05,8.42.08,4.85-3.61,8.45-8.54,8.36-4.82-.09-8.23-3.72-8.22-8.74Z"/>
  <path class="cls-3" d="M72.76,261.36c2.48-3.15,6.2-1.78,9.25-2.15,8.26-.99,16.64-1.6,24.73,1.45-3.09,1.8-6.1-.17-9.15-.25-7.59-.19-15.15-.05-22.63,1.41-.86.17-1.6.32-2.21-.46Z"/>
  <path class="cls-1" d="M24.3,314.36c.71-9.98,3.08-19.34,10.13-26.94-4.21,8.67-7.1,17.83-10.13,26.94Z"/>
  <path class="cls-3" d="M132.75,268.48c.68.98,1.35,1.95,2.03,2.93-.82-.02-1.81.25-2.43-.12-7.23-4.31-15.32-6.62-22.9-10.09,5.52-.41,10.14,2.4,14.96,4.32,2.75,1.1,5.43,2.32,8.34,2.96Z"/>
  <path class="cls-1" d="M41.7,278.42c3.57-6.53,9.87-9.25,16.36-11.7-5.42,3.95-10.33,8.6-16.36,11.7Z"/>
  <path class="cls-3" d="M63.37,264.63c1.87-2.6,4.77-2.51,7.5-2.86-1.88,2.57-4.42,3.43-7.5,2.86Z"/>
  <path class="cls-1" d="M23.99,345.6c-1.86-1.49-1.55-3.23-.59-5.05.93,1.6,1.38,3.25.59,5.05Z"/>
  <path class="cls-1" d="M23,327.85c-.3-1.48-.63-2.96.41-4.31.46,1.5.52,2.95-.41,4.31Z"/>
  <path class="cls-1" d="M23.65,319.48c-1.12-.87-.73-1.53.3-2.09.47.78.41,1.48-.3,2.09Z"/>
  <path class="cls-1" d="M34.82,286.64c-.12-1.27.44-2.01,1.7-2.23.12,1.27-.6,1.89-1.7,2.23Z"/>
  <path class="cls-1" d="M39.79,280.58c-.06-1.31.61-1.98,1.87-2.11-.03,1.23-.63,1.95-1.87,2.11Z"/>
  <path class="cls-3" d="M61.55,265.57c.19-.21.42-.32.7-.34,0,.61-.19.8-.7.34Z"/>
  <path class="cls-6" d="M260.66,186.56c4.47,1.31,5.96,4.82,5.2,8.8-1.34,7.02-4.16,13.58-8.17,20.39-2.83-4.53-5.28-8.5-6.13-13.27,1.76-.8,2.08-2.52,2.4-4.09.97-4.69,3.34-8.52,6.69-11.83Z"/>
  <path class="cls-1" d="M260.66,186.56c-3.35,3.31-5.73,7.15-6.69,11.83-.32,1.57-.64,3.29-2.4,4.09-1.72-3.44-3-6.98-1.93-10.89,1.45-5.35,5.61-7.21,11.03-5.03Z"/>
  <path class="cls-5" d="M198.68,161.45c-1.69-.66-1.67,1.09-2.32,1.76-3.18,3.27-7.51,4.17-10.8,2.09-3.14-1.99-4.63-7.4-2.89-11.18,1.72-3.75,4.69-5.5,8.86-4.68,4.47.88,7.09,4.37,7.02,8.96-.02,1.04-1.34,2.13.05,3.14l.08-.09Z"/>
  <path class="cls-1" d="M198.6,161.53c1,.35,1.43-.55,2.07-.97,2.21-1.43,4.37-1.55,6.28.43,1.56,1.61,1.65,3.55.6,5.48-1.15,2.12-3,3.12-5.37,2.56-2.66-.62-3.65-2.6-3.6-5.2.01-.8.06-1.6.09-2.39,0,0-.08.09-.08.09Z"/>
  <path class="cls-5" d="M321.25,149.02c4.95.13,8.67,4.12,8.53,9.15-.14,5.02-3.56,8.12-8.83,7.98-4.81-.13-8.48-3.59-8.48-8.01,0-4.71,4.37-9.24,8.78-9.12Z"/>
  <path class="cls-1" d="M340.02,164.07c-.12,2.92-1.48,4.81-4.53,4.83-2.93.02-4.71-1.61-4.81-4.59-.1-3,1.69-4.73,4.53-4.9,3.03-.18,4.43,1.81,4.8,4.65Z"/>
</svg>
